<svg width="390" height="390" viewBox="0 0 390 390" fill="none" xmlns="http://www.w3.org/2000/svg">
<path d="M0 0C275.609 0 385.986 0 390 0" stroke="#F8F1ED"/>
<path d="M0 30C275.609 30 385.986 30 390 30" stroke="#F8F1ED"/>
<path d="M0 60C275.609 60 385.986 60 390 60" stroke="#F8F1ED"/>
<path d="M0 90C275.609 90 385.986 90 390 90" stroke="#F8F1ED"/>
<path d="M0 120C275.609 120 385.986 120 390 120" stroke="#F8F1ED"/>
<path d="M0 150C275.609 150 385.986 150 390 150" stroke="#F8F1ED"/>
<path d="M0 180C275.609 180 385.986 180 390 180" stroke="#F8F1ED"/>
<path d="M0 210C275.609 210 385.986 210 390 210" stroke="#F8F1ED"/>
<path d="M0 240C275.609 240 385.986 240 390 240" stroke="#F8F1ED"/>
<path d="M0 270C275.609 270 385.986 270 390 270" stroke="#F8F1ED"/>
<path d="M0 300C275.609 300 385.986 300 390 300" stroke="#F8F1ED"/>
<path d="M0 330C275.609 330 385.986 330 390 330" stroke="#F8F1ED"/>
<path d="M0 360C275.609 360 385.986 360 390 360" stroke="#F8F1ED"/>
<path d="M390 0C390 275.609 390 385.986 390 390" stroke="#F8F1ED"/>
<path d="M360 0C360 275.609 360 385.986 360 390" stroke="#F8F1ED"/>
<path d="M330 0C330 275.609 330 385.986 330 390" stroke="#F8F1ED"/>
<path d="M300 0C300 275.609 300 385.986 300 390" stroke="#F8F1ED"/>
<path d="M270 0C270 275.609 270 385.986 270 390" stroke="#F8F1ED"/>
<path d="M240 0C240 275.609 240 385.986 240 390" stroke="#F8F1ED"/>
<path d="M210 0C210 275.609 210 385.986 210 390" stroke="#F8F1ED"/>
<path d="M180 0C180 275.609 180 385.986 180 390" stroke="#F8F1ED"/>
<path d="M150 0C150 275.609 150 385.986 150 390" stroke="#F8F1ED"/>
<path d="M120 0C120 275.609 120 385.986 120 390" stroke="#F8F1ED"/>
<path d="M90 0C90 275.609 90 385.986 90 390" stroke="#F8F1ED"/>
<path d="M60 0C60 275.609 60 385.986 60 390" stroke="#F8F1ED"/>
<path d="M30 0C30 275.609 30 385.986 30 390" stroke="#F8F1ED"/>
<path d="M0 0C-1.20472e-05 275.609 -1.6872e-05 385.986 -1.70474e-05 390" stroke="#F8F1ED"/>
<path d="M0 390C275.609 390 385.986 390 390 390" stroke="#F8F1ED"/>
</svg>
